<svg width="24" height="24" viewBox="0 0 24 24" fill="none" xmlns="http://www.w3.org/2000/svg">
<path d="M8.5 3H16.5C18.9853 3 21 5.01472 21 7.5V15.5C21 17.9853 18.9853 20 16.5 20H8.5C6.01472 20 4 17.9853 4 15.5V7.5C4 5.01472 6.01472 3 8.5 3ZM12.5 7.5H12.501C13.5623 7.49764 14.5806 7.91849 15.3311 8.66895C16.0815 9.4194 16.5024 10.4377 16.5 11.499V11.5C16.5 13.7092 14.7092 15.5 12.5 15.5C10.2909 15.5 8.5 13.7092 8.5 11.5C8.5 9.29086 10.2909 7.5 12.5 7.5ZM12.5 8.25C10.7051 8.25 9.25 9.70506 9.25 11.5C9.25 13.2949 10.7051 14.75 12.5 14.75C14.2949 14.75 15.75 13.2949 15.75 11.5C15.75 9.70506 14.2949 8.25 12.5 8.25ZM17.25 6.25C17.5262 6.25 17.75 6.47386 17.75 6.75C17.75 7.02614 17.5262 7.25 17.25 7.25C16.9738 7.25 16.75 7.02614 16.75 6.75C16.75 6.47386 16.9738 6.25 17.25 6.25ZM20.25 7.49805C20.2434 5.43078 18.5692 3.75656 16.502 3.75H8.49805C6.43079 3.75656 4.75656 5.43079 4.75 7.49805V15.502C4.75635 17.5046 6.32791 19.1381 8.30566 19.2441L8.49805 19.25H16.502C18.5046 19.2436 20.1381 17.672 20.2441 15.6943L20.25 15.502V7.49805Z" fill="#00568D" stroke="#00568D"/>
</svg>
