<svg width="24" height="24" viewBox="0 0 24 24" fill="none" xmlns="http://www.w3.org/2000/svg">
<path d="M7 17.1497C5.57234 17.1497 4.35717 16.6484 3.3545 15.6457C2.35184 14.6432 1.8505 13.4282 1.8505 12.0007C1.8505 10.5732 2.35184 9.35706 3.3545 8.35223C4.35717 7.34723 5.57234 6.84473 7 6.84473H10.3325C10.573 6.84473 10.7751 6.92798 10.9388 7.09448C11.1024 7.26098 11.1843 7.46506 11.1843 7.70673C11.1843 7.94839 11.1024 8.15006 10.9388 8.31173C10.7751 8.47323 10.573 8.55398 10.3325 8.55398H7C6.03967 8.55398 5.22525 8.88773 4.55675 9.55523C3.88809 10.2227 3.55375 11.0357 3.55375 11.9942C3.55375 12.9529 3.88809 13.768 4.55675 14.4395C5.22525 15.1108 6.03967 15.4465 7 15.4465H10.3325C10.573 15.4465 10.7751 15.5287 10.9388 15.6932C11.1024 15.8577 11.1843 16.0608 11.1843 16.3025C11.1843 16.5441 11.1024 16.7457 10.9388 16.9072C10.7751 17.0689 10.573 17.1497 10.3325 17.1497H7ZM8.80925 12.786C8.58725 12.786 8.40075 12.7111 8.24975 12.5615C8.09875 12.4116 8.02325 12.2231 8.02325 11.9957C8.02325 11.7686 8.09775 11.5816 8.24675 11.4347C8.39575 11.2879 8.58325 11.2145 8.80925 11.2145H15.1908C15.4128 11.2145 15.5993 11.2893 15.7503 11.439C15.9013 11.5888 15.9768 11.7774 15.9768 12.0047C15.9768 12.2319 15.9023 12.4189 15.7533 12.5657C15.6043 12.7126 15.4168 12.786 15.1908 12.786H8.80925ZM13.6733 17.1497C13.4289 17.1497 13.2249 17.0675 13.0613 16.903C12.8976 16.7385 12.8158 16.5354 12.8158 16.2937C12.8158 16.0521 12.8976 15.8504 13.0613 15.6887C13.2249 15.5272 13.4289 15.4465 13.6733 15.4465H17C17.9603 15.4465 18.7748 15.1127 19.4433 14.4452C20.1119 13.7777 20.4463 12.9647 20.4463 12.0062C20.4463 11.0476 20.1119 10.2325 19.4433 9.56098C18.7748 8.88964 17.9603 8.55398 17 8.55398H13.6733C13.4289 8.55398 13.2249 8.47173 13.0613 8.30723C12.8976 8.14273 12.8158 7.93964 12.8158 7.69798C12.8158 7.45631 12.8976 7.25373 13.0613 7.09023C13.2249 6.92656 13.4289 6.84473 13.6733 6.84473H17C18.4277 6.84473 19.6438 7.34706 20.6485 8.35173C21.6532 9.35623 22.1555 10.5722 22.1555 11.9997C22.1555 13.4272 21.6532 14.6424 20.6485 15.6452C19.6438 16.6482 18.4277 17.1497 17 17.1497H13.6733Z" fill="#00568D"/>
</svg>
