<svg width="168" height="36" viewBox="0 0 168 36" fill="none" xmlns="http://www.w3.org/2000/svg">
<g clip-path="url(#clip0_11342_3357)">
<path d="M76.8619 27.1455C76.8872 26.4731 76.7646 25.8034 76.503 25.1847C76.2414 24.566 75.8473 24.0137 75.3491 23.5675C74.2776 22.6472 72.904 22.166 71.499 22.2189H66.0545V35.7405H69.5545V25.3447H71.5301C71.7682 25.3292 72.0068 25.3651 72.2301 25.45C72.4534 25.535 72.6562 25.667 72.8251 25.8374C72.9939 26.0077 73.125 26.2125 73.2095 26.4381C73.294 26.6636 73.33 26.9048 73.3152 27.1455C73.3251 27.3871 73.2869 27.6282 73.2027 27.8545C73.1185 28.0808 72.9901 28.2876 72.8252 28.4627C72.6555 28.6325 72.4528 28.765 72.2298 28.8516C72.0069 28.9382 71.7687 28.9772 71.5301 28.966H69.5545L74.0813 35.7484H77.9703L74.6724 31.2189C75.3685 30.8046 75.94 30.2066 76.3257 29.489C76.7113 28.7715 76.8967 27.9614 76.8619 27.1455ZM138.704 27.0826C138.73 26.4106 138.607 25.7413 138.347 25.1227C138.086 24.5041 137.693 23.9515 137.196 23.5046C136.122 22.5857 134.747 22.1048 133.342 22.156H127.897V35.6933L131.397 35.713V25.2818H133.377C133.614 25.2662 133.853 25.3021 134.076 25.3871C134.299 25.472 134.502 25.6042 134.67 25.7746C134.839 25.945 134.97 26.1499 135.054 26.3754C135.138 26.601 135.173 26.8421 135.158 27.0826C135.168 27.3238 135.13 27.5647 135.046 27.7909C134.963 28.0171 134.835 28.2241 134.672 28.3998C134.502 28.5692 134.299 28.7014 134.076 28.788C133.853 28.8746 133.615 28.9138 133.377 28.903H131.397L135.912 35.6933H139.801L136.507 31.1599C137.205 30.7456 137.778 30.1473 138.165 29.4291C138.552 28.7109 138.738 27.8998 138.704 27.0826ZM83.2593 30.1416H87.4516V27.3303H83.2593V25.2582H88.8283V22.2189H79.9031V35.7523H89.0733V32.713H83.2593V30.1416ZM106.819 30.2635H111.011V27.4522H106.819V25.3801H112.388V22.3408H103.463V35.8703H112.633V32.8349H106.819V30.2635ZM97.7185 27.7589L96.1629 27.0944C95.8224 26.973 95.5043 26.7949 95.2218 26.5675C95.1294 26.481 95.0563 26.3756 95.0074 26.2583C94.9584 26.1411 94.9347 26.0146 94.9379 25.8873C94.9379 25.2504 95.3735 24.924 96.2407 24.924C96.6956 24.9133 97.143 25.0421 97.5241 25.2936C97.9095 25.5795 98.2403 25.9339 98.5002 26.3395L100.729 24.6134C99.8263 22.8598 98.3019 21.9712 96.1979 21.9712C94.9843 21.9191 93.7919 22.3052 92.834 23.0603C92.4132 23.4049 92.0773 23.8434 91.8526 24.3415C91.6279 24.8395 91.5205 25.3835 91.5389 25.9306C91.5389 27.6291 92.6784 28.9895 94.9185 29.9804L96.3146 30.6055C96.7063 30.7604 97.0794 30.9596 97.4268 31.1992C97.5357 31.2911 97.6214 31.4078 97.6768 31.5398C97.7323 31.6717 97.7559 31.8151 97.7457 31.9581C97.7457 32.6776 97.248 33.0433 96.2602 33.0433C95.0935 33.0433 94.0862 32.4614 93.2229 31.3133L90.9711 33.0393C91.4575 33.9344 92.1806 34.675 93.0595 35.1783C94.0354 35.734 95.1403 36.0163 96.2602 35.9961C97.5217 36.0425 98.7597 35.642 99.7602 34.8637C100.209 34.4974 100.567 34.03 100.806 33.4989C101.044 32.9677 101.156 32.3876 101.133 31.8047C101.161 30.9409 100.865 30.0981 100.305 29.4456C99.5737 28.7006 98.6913 28.1251 97.7185 27.7589ZM118.653 22.0774L114.457 35.8585H117.902L118.536 33.6449L122.379 33.6999L122.974 35.8585H126.299L121.99 22.097L118.653 22.0774ZM119.077 30.7274L119.108 30.6095L120.345 26.1272L121.679 30.7274H119.077ZM147.785 25.0774C149.263 25.0774 150.461 25.8205 151.348 27.2831L153.895 25.5335C153.319 24.4538 152.462 23.5538 151.418 22.9306C150.315 22.2833 149.06 21.9516 147.785 21.9712C146.838 21.949 145.895 22.116 145.011 22.4628C144.128 22.8096 143.321 23.3293 142.636 23.9922C141.975 24.6413 141.449 25.418 141.089 26.2764C140.73 27.1349 140.545 28.0575 140.545 28.9895C140.545 29.9216 140.73 30.8442 141.089 31.7026C141.449 32.5611 141.975 33.3378 142.636 33.9869C143.321 34.6483 144.129 35.1666 145.012 35.5121C145.896 35.8575 146.838 36.0233 147.785 36C149.059 36.0184 150.314 35.6883 151.418 35.0446C152.462 34.4214 153.319 33.5213 153.895 32.4417L151.348 30.692C150.461 32.1547 149.263 32.8978 147.785 32.8978C147.284 32.9149 146.784 32.8293 146.316 32.6461C145.849 32.463 145.422 32.1862 145.063 31.8323C144.708 31.4569 144.433 31.013 144.252 30.5272C144.072 30.0414 143.99 29.5237 144.013 29.0053C143.99 28.4832 144.071 27.9619 144.252 27.4722C144.432 26.9825 144.708 26.5345 145.063 26.1547C145.42 25.7969 145.846 25.5168 146.314 25.3316C146.782 25.1463 147.283 25.0598 147.785 25.0774ZM164.523 27.1691H159.394V22.1599H156.038V35.6933H159.394V30.2084H164.523V35.6933H167.88V22.1599H164.523V27.1691ZM146.556 18.5033C148.485 18.5439 150.35 17.8101 151.744 16.4627C152.432 15.8225 152.977 15.0423 153.344 14.1734C153.712 13.3045 153.893 12.3668 153.875 11.422C153.893 10.4773 153.712 9.53956 153.344 8.67069C152.977 7.80182 152.432 7.02158 151.744 6.38142C150.349 5.03546 148.484 4.30191 146.556 4.34079C145.605 4.32058 144.659 4.49044 143.773 4.84061C142.887 5.19079 142.077 5.7144 141.392 6.38142C140.71 7.02508 140.17 7.80652 139.807 8.67496C139.444 9.54339 139.266 10.4794 139.284 11.422C139.266 12.3653 139.444 13.3018 139.807 14.1708C140.171 15.0399 140.71 15.8221 141.392 16.4666C142.078 17.1331 142.887 17.6561 143.773 18.0056C144.659 18.3551 145.605 18.5243 146.556 18.5033ZM143.818 8.5636C144.564 7.85847 145.547 7.46619 146.568 7.46619C147.589 7.46619 148.572 7.85847 149.317 8.5636C149.68 8.94043 149.963 9.38772 150.15 9.87837C150.336 10.369 150.422 10.8928 150.403 11.4181C150.424 11.9454 150.339 12.4717 150.153 12.9646C149.966 13.4575 149.682 13.9066 149.317 14.2844C148.568 14.9818 147.587 15.369 146.568 15.369C145.549 15.369 144.568 14.9818 143.818 14.2844C143.459 13.9038 143.18 13.4537 142.996 12.9612C142.813 12.4686 142.731 11.9438 142.753 11.4181C142.733 10.8945 142.818 10.3723 143.001 9.8821C143.184 9.3919 143.462 8.94362 143.818 8.5636ZM71.0207 4.34079C70.0694 4.32058 69.1235 4.49044 68.2372 4.84061C67.3509 5.19079 66.5418 5.7144 65.8561 6.38142C65.1747 7.02508 64.6348 7.80652 64.2716 8.67496C63.9085 9.54339 63.7302 10.4794 63.7483 11.422C63.7304 12.3653 63.9087 13.3018 64.2719 14.1708C64.635 15.0399 65.1747 15.8221 65.8561 16.4666C67.2682 17.7774 69.1154 18.5047 71.0323 18.5047C72.9493 18.5047 74.7965 17.7774 76.2086 16.4666C76.896 15.8265 77.4414 15.0462 77.8088 14.1773C78.1761 13.3085 78.3571 12.3707 78.3397 11.426C78.3601 10.482 78.1825 9.54445 77.8185 8.67495C77.4545 7.80545 76.9124 7.02378 76.228 6.38142C74.8282 5.0306 72.9553 4.29667 71.0207 4.34079ZM73.7819 14.2884C73.0324 14.9858 72.051 15.3729 71.0323 15.3729C70.0137 15.3729 69.0323 14.9858 68.2828 14.2884C67.9235 13.9077 67.6439 13.4576 67.4608 12.9651C67.2777 12.4726 67.1949 11.9477 67.2173 11.422C67.1973 10.8978 67.2812 10.3748 67.4642 9.88392C67.6473 9.39301 67.9256 8.94408 68.2828 8.5636C69.0285 7.85847 70.0113 7.46619 71.0323 7.46619C72.0533 7.46619 73.0362 7.85847 73.7819 8.5636C74.1443 8.94043 74.4274 9.38772 74.6139 9.87837C74.8004 10.369 74.8864 10.8928 74.8669 11.4181C74.8893 11.9461 74.8046 12.4731 74.618 12.9667C74.4314 13.4603 74.1468 13.9101 73.7819 14.2884ZM130.168 18.5033C132.091 18.541 133.951 17.8073 135.34 16.4627C136.028 15.8225 136.573 15.0423 136.941 14.1734C137.308 13.3045 137.489 12.3668 137.472 11.422C137.489 10.4773 137.308 9.53956 136.941 8.67069C136.573 7.80182 136.028 7.02158 135.34 6.38142C133.929 5.06895 132.082 4.3405 130.164 4.3405C128.247 4.3405 126.399 5.06895 124.988 6.38142C124.31 7.02693 123.773 7.80908 123.413 8.67734C123.053 9.54559 122.876 10.4806 122.896 11.422C122.879 12.3655 123.058 13.3022 123.421 14.1712C123.785 15.0402 124.326 15.8222 125.007 16.4666C125.693 17.133 126.501 17.6559 127.387 18.0055C128.272 18.355 129.218 18.5242 130.168 18.5033ZM127.426 8.5636C128.173 7.85907 129.156 7.46726 130.178 7.46726C131.199 7.46726 132.183 7.85907 132.929 8.5636C133.292 8.94043 133.575 9.38772 133.761 9.87837C133.948 10.369 134.034 10.8928 134.014 11.4181C134.036 11.9454 133.951 12.4717 133.765 12.9646C133.578 13.4575 133.294 13.9066 132.929 14.2844C132.179 14.9821 131.197 15.3693 130.178 15.3693C129.159 15.3693 128.177 14.9821 127.426 14.2844C127.068 13.903 126.789 13.4528 126.606 12.9605C126.423 12.4681 126.34 11.9437 126.361 11.4181C126.341 10.8945 126.426 10.3723 126.609 9.8821C126.792 9.3919 127.07 8.94362 127.426 8.5636ZM92.3984 4.59243H89.0111V12.7432C89.0246 13.0943 88.9678 13.4445 88.8442 13.7729C88.7206 14.1013 88.5327 14.4011 88.2918 14.6544C88.0509 14.9076 87.7618 15.109 87.4421 15.2467C87.1223 15.3843 86.7783 15.4552 86.4308 15.4552C86.0832 15.4552 85.7392 15.3843 85.4195 15.2467C85.0997 15.109 84.8107 14.9076 84.5697 14.6544C84.3288 14.4011 84.1409 14.1013 84.0173 13.7729C83.8937 13.4445 83.8369 13.0943 83.8504 12.7432V4.59243H80.4631V12.4561C80.4306 13.2622 80.5626 14.0664 80.851 14.8187C81.1393 15.5709 81.5779 16.255 82.1393 16.8283C83.3173 17.8968 84.8442 18.4878 86.4269 18.4878C88.0095 18.4878 89.5364 17.8968 90.7145 16.8283C91.2774 16.2558 91.7175 15.572 92.0073 14.8197C92.297 14.0674 92.4302 13.2628 92.3984 12.4561V4.59243ZM106.216 4.59243H94.6151V7.65927H98.7219V18.2517H102.109V7.65927H106.216V4.59243ZM120.765 11.3788C120.8 10.4521 120.632 9.52902 120.271 8.67628C119.911 7.82354 119.367 7.0625 118.68 6.44826C117.205 5.18644 115.318 4.52489 113.387 4.59243H108.72V18.2517H113.387C115.324 18.3155 117.213 17.6308 118.668 16.3369C119.354 15.7147 119.897 14.9486 120.259 14.0922C120.621 13.2358 120.794 12.3097 120.765 11.3788ZM116.187 14.1665C115.412 14.8591 114.402 15.2237 113.368 15.1848H112.092V7.67893H113.368C114.393 7.63644 115.398 7.97335 116.195 8.62651C116.571 8.97256 116.865 9.39958 117.055 9.87598C117.246 10.3524 117.328 10.866 117.296 11.3788C117.32 11.8967 117.234 12.4138 117.042 12.8949C116.851 13.376 116.559 13.8097 116.187 14.1665ZM159.522 11.4103V7.75364H161.517C161.757 7.73811 161.998 7.77442 162.223 7.86017C162.448 7.94591 162.653 8.07911 162.823 8.25093C162.993 8.42275 163.126 8.62925 163.211 8.8567C163.296 9.08416 163.333 9.32736 163.318 9.57015C163.33 9.81763 163.293 10.065 163.208 10.2975C163.123 10.5299 162.992 10.7426 162.824 10.9227C162.653 11.094 162.448 11.2275 162.223 11.3148C161.998 11.4021 161.758 11.4413 161.517 11.4299H159.522L164.092 18.2792H168.008L164.706 13.675C165.408 13.2551 165.983 12.6502 166.371 11.9251C166.759 11.1999 166.944 10.3818 166.907 9.55835C166.933 8.88021 166.809 8.2048 166.546 7.58069C166.282 6.95658 165.885 6.3993 165.383 5.94892C164.3 5.01974 162.913 4.53436 161.494 4.5885H155.995V18.2477L159.522 18.2674V11.4103ZM57.5881 16.3015C57.5881 12.692 56.3242 9.75888 53.8275 7.5885C51.3308 5.41812 48.099 4.30541 44.2334 4.30541H30.6609V9.46399C29.1318 6.0966 26.51 3.35898 23.2303 1.70535C19.9507 0.0517199 16.2104 -0.418512 12.63 0.372676C9.0497 1.16386 5.84453 3.16891 3.54635 6.05514C1.24816 8.94136 -0.00488281 12.5353 -0.00488281 16.2405C-0.00488281 19.9458 1.24816 23.5397 3.54635 26.4259C5.84453 29.3121 9.0497 31.3172 12.63 32.1084C16.2104 32.8996 19.9507 32.4293 23.2303 30.7757C26.51 29.1221 29.1318 26.3845 30.6609 23.0171V35.9922L39.3605 35.9135V11.9135H44.2839C44.8741 11.8863 45.4638 11.9787 46.0181 12.1853C46.5725 12.392 47.0803 12.7086 47.5118 13.1167C47.9207 13.5342 48.2398 14.0326 48.4493 14.5806C48.6588 15.1286 48.754 15.7145 48.729 16.3015C48.7537 16.892 48.6585 17.4813 48.4491 18.0331C48.2398 18.585 47.9208 19.0875 47.5118 19.5099C47.0839 19.9246 46.5772 20.2471 46.0223 20.458C45.4675 20.6689 44.8761 20.7636 44.2839 20.7366H39.3605L50.6074 35.9529H59.7388L52.1552 26.2255C55.7603 24.0197 57.5881 20.6776 57.5881 16.3015ZM16.0655 24.1376C14.5199 24.1384 13.0088 23.6757 11.7234 22.8081C10.438 21.9404 9.43596 20.7068 8.84414 19.2632C8.25231 17.8197 8.09726 16.2311 8.3986 14.6985C8.69994 13.1659 9.44413 11.758 10.537 10.6531C11.6299 9.54813 13.0224 8.79573 14.5383 8.49107C16.0543 8.18641 17.6255 8.34317 19.0533 8.94152C20.4811 9.53987 21.7013 10.5529 22.5595 11.8525C23.4177 13.1521 23.8754 14.6799 23.8746 16.2425C23.8746 18.3364 23.0518 20.3446 21.5874 21.8252C20.1229 23.3058 18.1366 24.1376 16.0655 24.1376Z" fill="black"/>
</g>
<defs>
<clipPath id="clip0_11342_3357">
<rect width="168" height="36" fill="white"/>
</clipPath>
</defs>
</svg>
