<svg width="168" height="29" viewBox="0 0 168 29" fill="none" xmlns="http://www.w3.org/2000/svg">
<g clip-path="url(#clip0_11342_3307)">
<path d="M39.6115 24.1169V24.1072C39.6311 24.7267 39.9207 24.927 40.6163 24.9366H40.6066H43.0802V25.2036H40.6066C39.7371 25.1844 39.3603 24.927 39.3408 24.1169V18.6265H43.0802V18.8935H39.6109V21.734H42.8479V22.0011H39.6109V24.1169H39.6115Z" fill="black"/>
<path d="M44.2594 21.9432C44.2594 19.4648 45.9892 18.5308 47.5446 18.5308C49.0999 18.5308 50.8395 19.4648 50.8395 21.9432C50.8395 23.9736 49.5639 25.2601 47.6311 25.2986C47.7567 26.1851 48.2982 26.5471 49.0707 26.5471C49.3993 26.5471 49.834 26.5279 50.1334 26.4232V26.6806C49.8243 26.7763 49.4279 26.8142 49.0707 26.8142C48.1433 26.8142 47.486 26.3757 47.3604 25.2986C45.4764 25.2126 44.2588 23.9454 44.2588 21.9432H44.2594ZM50.5792 21.9432C50.5792 19.7318 48.9847 18.7785 47.5452 18.7785C46.1057 18.7785 44.5204 19.7318 44.5204 21.9432C44.5204 23.7734 45.7282 25.0598 47.5355 25.0598C49.3427 25.0598 50.5792 23.7734 50.5792 21.9432Z" fill="black"/>
<path d="M57.4586 22.5441C57.4586 25.194 55.6709 25.3083 54.9173 25.3083C54.1637 25.3083 52.376 25.194 52.376 22.5441V18.6265H52.6467V22.5441C52.6467 24.9366 54.2509 25.0412 54.9173 25.0412C55.5837 25.0412 57.1878 24.9366 57.1878 22.5441V18.6265H57.4586V22.5441Z" fill="black"/>
<path d="M59.3716 25.203V18.6265H59.6423V25.203H59.3716Z" fill="black"/>
<path d="M61.884 22.315V25.203H61.6133V18.6265H64.2704C64.9466 18.6265 65.9032 19.2363 65.9032 20.4181C65.9032 22.0101 64.8014 22.315 64.2314 22.315H61.8834H61.884ZM64.232 22.0479C64.7058 22.0479 65.6331 21.7905 65.6331 20.4181C65.6331 19.4077 64.8314 18.8929 64.2704 18.8929H61.8834V22.0479H64.2314H64.232Z" fill="black"/>
<path d="M70.6772 24.6503C69.8944 22.6584 69.0054 20.7615 67.9427 18.9693L67.3244 25.203H67.0537L67.7012 18.6265H68.078C69.1408 20.4181 70.0785 22.3439 70.8803 24.4121C71.682 22.3439 72.6198 20.4187 73.6825 18.6265H74.0594L74.7069 25.203H74.4361L73.8179 18.9693C72.7552 20.7615 71.8662 22.6578 71.0833 24.6503H70.6772Z" fill="black"/>
<path d="M76.6579 24.1169V24.1072C76.6775 24.7267 76.9671 24.927 77.6627 24.9366H77.653H80.1266V25.2036H77.653C76.7835 25.1844 76.4067 24.927 76.3872 24.1169V18.6265H80.1266V18.8935H76.6573V21.734H79.8943V22.0011H76.6573V24.1169H76.6579Z" fill="black"/>
<path d="M86.1369 25.203C85.0839 23.0012 83.3639 20.3802 81.9621 18.9596V25.203H81.6914V18.6265H82.0005C83.4212 20.0278 85.1314 22.5345 86.2137 24.7838V18.6265H86.4844V25.203H86.1362H86.1369Z" fill="black"/>
<path d="M89.9245 25.2031V18.893H87.6729V18.626H92.4463V18.893H90.2044V25.2031H89.9239H89.9245Z" fill="black"/>
<path d="M42.9095 13.6341C42.9095 14.0205 43.0403 14.3518 43.544 14.3518H48.8232V17.13H42.8542C40.4476 17.0562 39.366 16.3937 39.3472 14.2227V4.45264H48.8232V7.23089H42.9102V9.25488H48.3012V11.9779H42.9102V13.6341H42.9095Z" fill="black"/>
<path d="M58.2993 4.45264H61.8806V17.13H58.5232C58.5603 17.13 57.0681 13.3947 54.6621 9.91735V17.13H51.062V4.45264H54.4194C55.9305 6.71607 57.6466 9.36529 58.2993 10.8558V4.45264Z" fill="black"/>
<path d="M68.0733 13.5789C68.0707 13.6867 68.0616 14.0128 68.2757 14.2048C68.3778 14.2966 68.5275 14.3518 68.7442 14.3518H73.2027V17.13H68.0173C65.6107 17.0562 64.548 16.3937 64.5103 14.2227V4.45264C64.5643 4.48602 64.6424 4.52967 64.7419 4.57076C64.8539 4.61698 64.9463 4.64072 65.0504 4.66383C65.3153 4.72289 65.5326 4.75306 65.6166 4.76397C65.8593 4.79607 66.0428 4.81276 66.1828 4.82496C66.4639 4.84935 66.691 4.86219 66.8674 4.87117C67.0151 4.87888 67.1303 4.88401 67.1811 4.88594C67.4882 4.89813 67.7863 4.90391 68.0739 4.90391C68.0772 9.5951 68.0863 13.0037 68.0739 13.5789H68.0733Z" fill="black"/>
<path d="M74.8076 17.13V4.45264H78.3706V17.13H74.8076Z" fill="black"/>
<path d="M92.4536 16.1917C90.3828 17.1116 88.7227 17.3324 87.0066 17.3324C83.7612 17.3324 80.3843 15.069 80.3843 10.8188C80.3843 6.56863 83.7416 4.25 87.5474 4.25C89.2824 4.25 90.9985 4.59984 91.9122 4.82066V7.58094C89.1138 7.15791 88.7038 7.21312 88.163 7.21312H87.9763C85.6445 7.21312 84.0404 8.57465 84.0404 10.8195C84.0404 13.0643 85.6445 14.3706 87.4355 14.3706C87.7901 14.3706 88.2001 14.352 88.9648 14.2236V12.3652H85.9055V9.82576H92.453V16.1924L92.4536 16.1917Z" fill="black"/>
<path d="M94.7476 17.13V4.45264H98.3477V9.1817H102.116V4.45264H105.716V17.13H102.116V11.8861H98.3477V17.13H94.7476Z" fill="black"/>
<path d="M110.977 16.682C110.977 13.5314 110.977 10.3808 110.976 7.23089H107.339V4.45264H118.158V7.23089H114.539V17.13C114.52 17.1165 114.493 17.0979 114.458 17.078C114.454 17.0761 114.449 17.0735 114.444 17.0703C114.343 17.0151 114.22 16.9805 114.22 16.9805C114.002 16.9195 113.834 16.8906 113.834 16.8906C113.61 16.8521 113.498 16.8328 113.339 16.8142C112.86 16.7571 112.447 16.732 112.405 16.7295C112.048 16.7083 111.565 16.6871 110.976 16.682H110.977Z" fill="black"/>
<path d="M123.287 13.6341C123.287 14.0205 123.418 14.3518 123.922 14.3518H129.201V17.13H123.232C120.826 17.0562 119.744 16.3937 119.725 14.2227V4.45264H129.201V7.23089H123.288V9.25488H128.679V11.9779H123.288V13.6341H123.287Z" fill="black"/>
<path d="M138.676 4.45264H142.258V17.13H138.9C138.937 17.13 137.445 13.3947 135.039 9.91735V17.13H131.439V4.45264H134.796C136.307 6.71607 138.024 9.36529 138.676 10.8558V4.45264Z" fill="black"/>
<path d="M148.451 13.6341C148.451 14.0205 148.581 14.3518 149.085 14.3518H154.364V17.13H148.395C145.989 17.0562 144.907 16.3937 144.888 14.2227V4.45264H154.364V7.23089H148.451V9.25488H153.842V11.9779H148.451V13.6341H148.451Z" fill="black"/>
<path d="M156.602 17.13V4.45264H161.657C164.94 4.45264 168 6.60566 168 10.8193C168 15.0329 164.94 17.1307 161.657 17.1307H156.602V17.13ZM160.949 14.3518C163.187 14.3518 164.344 13.082 164.344 10.8193C164.344 8.55647 163.261 7.23153 160.949 7.23153H160.165V14.3524H160.949V14.3518Z" fill="black"/>
<path d="M1.40759 8.21808C1.24164 8.28934 -0.397672 9.01856 0.0904127 11.6042C0.586957 14.2348 3.11914 15.6503 4.28273 16.0008C4.1298 15.2716 4.0478 14.6418 3.99379 13.9274C3.93717 13.1744 3.9222 12.3912 3.96906 11.637C2.62064 11.8334 1.4167 11.1414 1.0835 10.1342C0.777636 9.20921 1.31713 8.35545 1.40759 8.2168V8.21808Z" fill="black"/>
<path d="M11.992 6.55289C11.992 6.55289 9.53142 9.32793 9.53142 13.6404C9.53142 17.5202 11.6165 21.8314 11.6165 21.8314C11.6165 21.8314 7.73853 22.7698 6.53133 20.3633C4.74559 16.8031 3.47657 10.0501 6.31202 7.2712C8.27607 5.34671 11.9914 6.55289 11.9914 6.55289H11.992Z" fill="black"/>
<path d="M30.431 6.93225C30.431 6.93225 29.2622 7.57996 28.1402 8.9126C26.9031 10.382 26.4182 11.6729 26.4182 11.6729C26.4182 11.6729 24.272 9.99038 22.8552 12.0182C20.5502 15.3184 26.4768 21.3364 26.4768 21.3364C26.4768 21.3364 24.7952 24.2751 21.1404 25.6611C17.4856 27.047 14.8995 25.966 14.8995 25.966C14.8995 25.966 4.27288 11.9348 15.4897 4.33695C24.4288 -1.71833 30.431 6.93161 30.431 6.93161V6.93225Z" fill="black"/>
<path d="M38.7037 8.60464C38.7037 8.60464 37.1471 6.90225 34.775 7.58205C33.0765 8.06863 31.851 8.96861 30.6705 11.908C29.5896 14.5996 30.5 16.4111 31.1768 16.9824C31.853 17.5537 32.425 16.5594 32.425 16.5594C32.425 16.5594 32.0202 18.2303 29.8278 18.618C27.4719 19.0353 26.0324 17.2039 26.2856 14.9578C26.4691 13.326 27.7752 8.46919 32.358 6.86053C37.0332 5.21977 38.7044 8.60464 38.7044 8.60464H38.7037Z" fill="black"/>
<path d="M32.2075 10.3916C32.2075 10.3916 31.0589 12.2243 30.9274 13.6911C30.8161 14.9345 31.1018 16.4071 31.8951 16.2832C32.0806 16.2543 32.7977 15.7716 32.7977 13.1095C32.7977 11.7782 32.2075 10.3922 32.2075 10.3922V10.3916Z" fill="black"/>
</g>
<defs>
<clipPath id="clip0_11342_3307">
<rect width="168" height="29" fill="white"/>
</clipPath>
</defs>
</svg>
