<svg width="168" height="29" viewBox="0 0 168 29" fill="none" xmlns="http://www.w3.org/2000/svg">
<g clip-path="url(#clip0_11342_3338)">
<path d="M70.8499 28.2487V8.49414H86.1995V14.025H76.3376V28.2487H70.8499Z" fill="black"/>
<path d="M89.4849 28.2487V8.49414H94.9726V20.6436L107.027 8.49414H114.025V19.8923L125.372 8.49414H132.292V28.2487H126.804V14.5794L113.242 28.2487H108.537V14.5794L94.9726 28.2487H89.4849Z" fill="black"/>
<path d="M136.359 28.2487V22.7179L144.982 14.0269H136.084V8.49609H157.566V28.2507H136.357L136.359 28.2487ZM143.533 22.7179H152.078V14.1053L143.533 22.7179Z" fill="black"/>
<path d="M167.834 0.592773H162.346V28.2507H167.834V0.592773Z" fill="black"/>
<path d="M6.01595 14.415H-0.166016V28.2583H6.01595V14.415Z" fill="black"/>
<path d="M42.6561 0.563965H36.4741V14.413H42.6561V0.563965Z" fill="black"/>
<path d="M4.22531 -0.000868976L-0.145996 4.40479L24.0806 28.8218L28.452 24.4161L4.22531 -0.000868976Z" fill="black"/>
<path d="M18.4304 0.000108263L14.0591 4.40576L38.2857 28.8227L42.657 24.4171L18.4304 0.000108263Z" fill="black"/>
<path d="M56.7956 29C62.7537 29 67.3802 24.4174 67.3802 18.3723C67.3802 12.3272 62.7537 7.74463 56.7956 7.74463C50.8375 7.74463 46.2109 12.3673 46.2109 18.3723C46.2109 24.3772 50.8754 29 56.7956 29ZM56.7956 23.5475C53.9351 23.5475 51.7385 21.2151 51.7385 18.3723C51.7385 15.5295 53.9351 13.1971 56.7956 13.1971C59.6561 13.1971 61.8527 15.5295 61.8527 18.3723C61.8527 21.2151 59.6959 23.5475 56.7956 23.5475Z" fill="black"/>
</g>
<defs>
<clipPath id="clip0_11342_3338">
<rect width="168" height="29" fill="white" transform="translate(-0.166016)"/>
</clipPath>
</defs>
</svg>
